<svg width="35" height="28" viewBox="0 0 35 28" fill="none" xmlns="http://www.w3.org/2000/svg">
<path d="M3.97826 0.425777C2.15791 0.425777 0.638176 1.98448 0.638176 3.8515V24.4059C0.638176 26.2729 2.15791 27.8316 3.97826 27.8316H30.6989C32.5193 27.8316 34.039 26.2729 34.039 24.4059V3.8515C34.039 1.98448 32.5193 0.425777 30.6989 0.425777H3.97826ZM3.97826 3.8515H30.6989V24.4059H3.97826V3.8515ZM13.9985 7.27723C13.08 7.27723 12.3285 8.04802 12.3285 8.99009C12.3285 9.93217 13.08 10.703 13.9985 10.703C14.917 10.703 15.6686 9.93217 15.6686 8.99009C15.6686 8.04802 14.917 7.27723 13.9985 7.27723ZM21.5137 12.4158L15.6686 19.2673L11.4934 14.9851L6.95093 20.9801H27.7764L21.5137 12.4158Z" fill="#CCCCCC"/>
</svg>
