<svg width="33" height="30" viewBox="0 0 33 30" fill="none" xmlns="http://www.w3.org/2000/svg">
<path d="M29.1316 0.923585C28.9194 0.891343 28.6908 0.907464 28.4786 0.955827L3.60304 7.35589H16.5632L26.2914 4.85713C26.6995 5.45361 27.3687 5.84051 28.1032 5.905L28.4786 7.35589H31.8574L30.47 2.11654C30.2905 1.4717 29.7518 1.02031 29.1316 0.923585ZM1.9871 10.5801C1.08936 10.5801 0.354843 11.3056 0.354843 12.1922V28.3133C0.354843 29.1999 1.08936 29.9254 1.9871 29.9254H31.3677C32.2655 29.9254 33 29.1999 33 28.3133V12.1922C33 11.3056 32.2655 10.5801 31.3677 10.5801H1.9871ZM5.10471 13.8043H28.2501C28.495 14.4975 29.0499 15.0295 29.7355 15.2713V25.2342C29.0336 25.476 28.495 26.0241 28.2501 26.7012H5.10471C4.85988 26.008 4.32123 25.476 3.61936 25.2342V15.2713C4.32123 15.0295 4.85988 14.4975 5.10471 13.8043ZM16.6774 15.4164C13.9679 15.4164 11.7806 17.5767 11.7806 20.2527C11.7806 22.9288 13.9679 25.0891 16.6774 25.0891C19.387 25.0891 21.5742 22.9288 21.5742 20.2527C21.5742 17.5767 19.387 15.4164 16.6774 15.4164ZM8.51613 18.6406C7.61839 18.6406 6.88388 19.3661 6.88388 20.2527C6.88388 21.1394 7.61839 21.8649 8.51613 21.8649C9.41388 21.8649 10.1484 21.1394 10.1484 20.2527C10.1484 19.3661 9.41388 18.6406 8.51613 18.6406ZM24.8387 18.6406C23.941 18.6406 23.2065 19.3661 23.2065 20.2527C23.2065 21.1394 23.941 21.8649 24.8387 21.8649C25.7365 21.8649 26.471 21.1394 26.471 20.2527C26.471 19.3661 25.7365 18.6406 24.8387 18.6406Z" fill="#CCCCCC"/>
</svg>
