<svg width="29" height="31" viewBox="0 0 29 31" fill="none" xmlns="http://www.w3.org/2000/svg">
<path d="M25.3643 3.08316H18.8012C18.1417 1.29493 16.4146 9.53674e-07 14.3734 9.53674e-07C12.3323 9.53674e-07 10.6051 1.29493 9.94568 3.08316H3.38256C1.63972 3.08316 0.24231 4.45516 0.24231 6.16631V27.7484C0.24231 29.4441 1.63972 30.8315 3.38256 30.8315H25.3643C27.0914 30.8315 28.5046 29.4441 28.5046 27.7484V6.16631C28.5046 4.45516 27.0914 3.08316 25.3643 3.08316ZM12.8033 23.1237H6.52281V20.0405H12.8033V23.1237ZM12.8033 15.4158H6.52281V12.3326H12.8033V15.4158ZM14.3734 6.16631C13.5099 6.16631 12.8033 5.4726 12.8033 4.62473C12.8033 3.77686 13.5099 3.08316 14.3734 3.08316C15.237 3.08316 15.9436 3.77686 15.9436 4.62473C15.9436 5.4726 15.237 6.16631 14.3734 6.16631ZM19.7276 23.1237H15.9436V20.0405H18.4401L21.5803 16.9573L23.7942 19.131L19.7276 23.1237ZM19.7276 15.4158H15.9436V12.3326H18.4401L21.5803 9.24946L23.7942 11.4231L19.7276 15.4158ZM25.3643 27.7484H3.38256V6.16631H25.3643V27.7484Z" fill="#CCCCCC"/>
</svg>
