<svg width="42" height="31" viewBox="0 0 42 31" fill="none" xmlns="http://www.w3.org/2000/svg">
<path d="M22.8901 0.856445V4.65954C21.593 4.6408 20.3531 4.60333 18.8652 4.60333C11.8265 4.60333 7.55373 5.01549 4.94044 5.48385C2.15548 5.98968 0 8.25655 0 10.9918V20.6962C0 23.4315 2.15548 25.7171 4.94044 26.2041C7.55373 26.6725 11.8265 27.0847 18.8652 27.0847C20.3531 27.0847 21.593 27.0472 22.8901 27.0285V30.8316H26.7051V26.9348C31.4929 26.7474 34.812 26.4102 36.9293 26.073C39.7524 25.6046 41.9652 23.3003 41.9652 20.5276V11.1604C41.9652 8.38769 39.7524 6.08336 36.9293 5.63373C34.812 5.27777 31.4929 4.94055 26.7051 4.75321V0.856445H22.8901ZM18.8652 8.35022C20.3722 8.35022 21.593 8.38769 22.8901 8.40643V23.2816C21.593 23.3003 20.3722 23.3378 18.8652 23.3378C15.8514 23.3378 13.467 23.2441 11.445 23.1317V8.5563C13.467 8.4439 15.8514 8.35022 18.8652 8.35022ZM26.7051 8.51883C31.2831 8.70618 34.4114 9.02466 36.2999 9.32441C37.4825 9.51176 38.1501 10.3361 38.1501 11.1604V20.5276C38.1501 21.3519 37.5016 22.1762 36.2999 22.3636C34.4114 22.6821 31.2831 22.9818 26.7051 23.1692V8.51883ZM7.63003 8.87479V22.8132C6.84795 22.7195 6.18032 22.6259 5.62715 22.5135C4.44449 22.3074 3.81501 21.5018 3.81501 20.6962V10.9918C3.81501 10.1862 4.46357 9.38062 5.62715 9.17454C6.18032 9.06213 6.84795 8.96846 7.63003 8.87479Z" fill="#CCCCCC"/>
</svg>
