<svg width="32" height="29" viewBox="0 0 32 29" fill="none" xmlns="http://www.w3.org/2000/svg">
<path d="M3.63154 0.813621C1.95122 0.813621 0.548386 2.18895 0.548386 3.83632V24.9952C0.548386 26.6426 1.95122 28.0179 3.63154 28.0179H28.2968C29.9771 28.0179 31.3799 26.6426 31.3799 24.9952V3.83632C31.3799 2.18895 29.9771 0.813621 28.2968 0.813621H3.63154ZM3.63154 3.83632H28.2968V24.9952H3.63154V3.83632ZM6.71469 6.85902V9.88172H9.79785V6.85902H6.71469ZM22.1305 6.85902V9.88172H25.2136V6.85902H22.1305ZM12.881 9.88172V18.9498L20.5889 14.4158L12.881 9.88172ZM6.71469 12.9044V15.9271H9.79785V12.9044H6.71469ZM22.1305 12.9044V15.9271H25.2136V12.9044H22.1305ZM6.71469 18.9498V21.9725H9.79785V18.9498H6.71469ZM22.1305 18.9498V21.9725H25.2136V18.9498H22.1305Z" fill="#CCCCCC"/>
</svg>
