<?xml version="1.0" encoding="UTF-8"?>
<!DOCTYPE svg PUBLIC "-//W3C//DTD SVG 1.1//EN" "http://www.w3.org/Graphics/SVG/1.1/DTD/svg11.dtd">
<!-- Creator: CorelDRAW -->
<svg xmlns="http://www.w3.org/2000/svg" xml:space="preserve" width="210mm" height="297mm" version="1.1" style="shape-rendering:geometricPrecision; text-rendering:geometricPrecision; image-rendering:optimizeQuality; fill-rule:evenodd; clip-rule:evenodd"
viewBox="0 0 21000 29700"
 xmlns:xlink="http://www.w3.org/1999/xlink">
 <defs>
  <style type="text/css">
   <![CDATA[
    .str0 {stroke:#373535;stroke-width:141.11;stroke-miterlimit:22.9256}
    .fil0 {fill:none}
   ]]>
  </style>
 </defs>
 <g id="Camada_x0020_1">
  <metadata id="CorelCorpID_0Corel-Layer"/>
  <path class="fil0 str0" d="M6466.64 19123.99c690.24,0 1310.41,-22.64 1989.05,-22.64 678.08,0 1356.2,-0.82 2034.27,0.01 191.38,0.24 305.13,-23.87 474.12,-23.18l3549.17 -22.1c3.64,163.56 255.14,829.65 293.84,996l-8611.68 0c4.71,-211.69 159.75,-761.36 271.23,-928.09zm4091.11 -2625.83c-199.23,0 -295.29,9.68 -481.45,-174.29 -503.68,-497.75 292.84,-1322.65 815.86,-794.44 409.09,413.15 37.62,968.73 -334.41,968.73zm4882.22 -271.64c-395.5,0 -360.08,-15.3 -702.63,-43.33 -172.49,-14.12 -281.13,-24.58 -472.72,-24.58 12.25,-147.52 297.16,-604.76 400.86,-707.72 460.98,-457.7 520.44,-372.77 1226.81,-446.46 169.63,-17.7 305.85,-63.78 465.27,-99.96 329.92,-74.87 753.01,-277.43 845.43,-285.13 147.81,308.51 70.96,927.4 -283.72,1187.22 -63.27,46.35 -170.45,104.91 -243.14,141.33 -301.06,150.82 -883.87,278.63 -1236.16,278.63zm-11437.03 -1607.18c122.18,2.72 893.91,426.47 1809.04,429.27 129.68,0.39 227.3,24.05 329.22,77.74 9.3,4.9 30.82,17.31 43.66,24.19 145.6,77.93 94.17,50.22 208.95,152.93l149.41 144.63c132.34,155.89 374.16,510.52 420.68,710.51 -452.23,0 -641.75,67.91 -1152.74,67.91 -488.77,0 -1100.2,-166.04 -1411.47,-352.07 -297.1,-177.56 -472.23,-547.79 -463.58,-869.03 3.4,-126.3 57.56,-274.6 66.83,-386.08zm8227.42 -3327.56l1922.36 44.16c169.42,6.42 276.6,167.29 351.67,281.62 93.59,142.55 177.24,247.06 270.1,385.96 46.74,69.93 75.18,129.28 118.62,198.12l818.09 1444.33 -10126.45 -0.22c-56.87,-0.02 -102.41,1.96 -158.34,5.47 -51.59,3.24 -198.42,129.52 131.74,-417.1 79.83,-132.16 146.93,-250.29 223.44,-387.4 38.18,-68.44 65.9,-117.54 107,-187.12 105.43,-178.5 666.88,-1214.75 896.54,-1252.58 88.14,-14.52 199.27,0.31 301.33,-15.14 217.82,-32.99 1319.15,-14.98 1501.54,-35.5 362.45,-40.75 823.5,-20.21 1223.89,-19.3 221.42,0.5 359.47,-22.8 587.64,-22.67 202.94,0.13 408.64,3.42 611.18,0.91 125.54,-1.56 143.9,-22.89 269.44,-24.44l950.21 0.9zm-8272.63 1426.1c-333.08,0 -1356.17,-2.97 -1356.17,520.63 0,212.9 200.9,443.46 324.4,557.94l23.16 22.09c78.33,73.56 338.91,226.16 443.54,234.89 -2.96,132.76 -18.92,76.93 -148.68,258.55 -283.23,396.41 -374.39,413.26 -371.49,918.24 1.75,303.5 -23.04,528.15 -21.77,838.38 0.65,160.75 -24.17,234.42 -23.28,406.78l0.15 2105.33c0,520.31 67.81,988.66 67.81,1494.01 -113.11,-26.39 -185.62,-16.98 -272.92,66.22 -3.37,3.21 -8.23,7.81 -11.43,11.2 -3.19,3.38 -7.75,8.28 -10.76,11.85l-19.56 25.68c-116.95,183.5 10.06,428.32 269.46,428.32l15437.73 0c319.34,0 393.71,-491.51 39.75,-553.97 -33.74,-5.95 -26.02,-2.39 -44.84,-4.36 -4.16,-0.44 -11.08,-0.85 -15.1,-1.28 -4.14,-0.45 -11.73,-1.17 -15.51,-1.61l-167.72 -4.69 22.6 -2784.28c0,-335.8 -4.38,-2368.87 -83.28,-2610.34 -56.48,-172.88 -310.32,-404.62 -346.18,-558.76 176.58,-3.94 481.33,-194.97 598.17,-283.77 148.17,-112.6 566.75,-593.18 203.24,-858.37 -54.32,-39.63 -189.2,-107.92 -255.57,-128.88 -72.75,-22.96 -203.88,-53.35 -293.56,-68.18 -410.2,-67.83 -569.39,-44.05 -974.84,-18.26 -132.8,8.44 -219.08,44.55 -362.37,44.55 -24.05,-35.97 -65.28,-91.15 -97.22,-129 -22.63,-26.82 -30.42,-32.51 -54.16,-58.94 -4.4,-4.89 -16.79,-19.16 -21.1,-24.15 -3.06,-3.54 -7.38,-8.64 -10.41,-12.21 -3.03,-3.56 -7.31,-8.71 -10.33,-12.29 -3.02,-3.59 -7.2,-8.82 -10.21,-12.41l-517.24 -591.18c-0.36,-0.37 -26.58,-29.65 -32.12,-35.73 -44.87,-49.17 -80.71,-77.32 -122.05,-126.77l-442.23 -485.21c-85.18,-88.63 -77.71,-113.14 -225.29,-249.74 -52.01,-48.15 -73.12,-52.99 -124.78,-101.4 -293.94,-275.48 -380.25,-357.29 -763.93,-412.04 -314.57,-44.88 -1374.17,-126.65 -1750.42,-125.79 -423.56,0.97 -565.79,-45.24 -904.14,-45.24l-2124.67 0c-462.11,0 -1390.89,90.28 -1876.78,89.8l-870.85 123.87c-148.31,45.16 -408.92,355.78 -524.13,471.08l-949.6 1018.36c-50.91,55.11 -58.47,80.56 -112.44,136.4l-405.84 453.79c-41.38,46.28 -18.38,28.35 -65.53,71.94 -113.52,104.94 -219.53,-11.05 -619.51,-11.05z"/>
 </g>
</svg>
